<?xml version="1.0" encoding="utf-8"?>
<!-- Generator: Adobe Illustrator 24.0.0, SVG Export Plug-In . SVG Version: 6.00 Build 0)  -->
<svg version="1.1" id="Calque_1" xmlns="http://www.w3.org/2000/svg" xmlns:xlink="http://www.w3.org/1999/xlink" x="0px" y="0px"
	 viewBox="0 0 4652 1449" style="enable-background:new 0 0 4652 1449;" xml:space="preserve">
<style type="text/css">
	.st0{fill:#575756;}
	.st1{clip-path:url(#SVGID_2_);fill:#575756;}
	.st2{clip-path:url(#SVGID_2_);}
</style>
<rect x="691" y="413.3" transform="matrix(0.6561 -0.7546 0.7546 0.6561 -6.6634 863.649)" class="st0" width="506.7" height="51.6"/>
<g>
	<defs>
		<rect id="SVGID_1_" y="0" width="4652" height="1449"/>
	</defs>
	<clipPath id="SVGID_2_">
		<use xlink:href="#SVGID_1_"  style="overflow:visible;"/>
	</clipPath>
	<path class="st1" d="M797.6,749.8c0,72.9-59.1,131.9-131.9,131.9s-131.9-59.1-131.9-131.9c0-72.9,59.1-131.9,131.9-131.9
		S797.6,676.9,797.6,749.8"/>
	<path class="st1" d="M1093.4,345.9l-44.9,51.6c85.3,92.7,137.4,216.4,137.4,352.2c0,287.3-232.9,520.2-520.2,520.2
		c-287.3,0-520.2-232.9-520.2-520.2c0-287.3,232.9-520.2,520.2-520.2c112.9,0,217.4,36,302.6,97.1l44.8-51.6
		c-97.4-71.4-217.5-113.6-347.5-113.6c-324.9,0-588.2,263.4-588.2,588.2c0,324.9,263.4,588.2,588.2,588.2S1254,1074.6,1254,749.8
		C1254,593.4,1192.9,451.2,1093.4,345.9"/>
	<path class="st2" d="M1819.7,1139.1l-292-858.2h235.5l147.2,495.6l47.1,162.5h9.4l44.7-161.3l149.5-496.8h235.5l-292,858.2H1819.7z
		 M2409.6,503.4h199v635.7h-199V503.4z M2409.6,280.9h199v148.3h-199V280.9z M2961.9,1347.5c-58.1,0-107.9-8.2-149.5-24.7
		c-41.6-16.5-74.2-40-97.7-70.6c-23.5-29.8-36.5-64.4-38.8-103.6h191.9c1.6,11.8,6.7,22,15.3,30.6c9.4,8.6,21.2,15.3,35.3,20
		c14.1,5.5,30.6,8.2,49.4,8.2c31.4,0,56.1-4.3,74.2-13c18.8-8.6,32.2-21.6,40-38.8c7.9-17.3,11.8-38.1,11.8-62.4V993.1h-10.6
		c-12.6,32.2-35.3,58.1-68.3,77.7c-33,19.6-71.4,29.4-115.4,29.4c-36.9,0-70.6-6.3-101.2-18.8c-29.8-13.3-55.7-32.6-77.7-57.7
		c-22-25.1-38.8-56.5-50.6-94.2c-11.8-38.5-17.7-83.2-17.7-134.2c0-68.3,10.2-124.8,30.6-169.5c21.2-44.7,50.2-78.1,87.1-100.1
		c37.7-22.8,81.2-34.1,130.7-34.1c43.2,0,81.2,9.8,114.2,29.4c33,19.6,55.7,45.1,68.3,76.5h10.6l7.1-94.2h191.9v551
		c0,54.2-7.8,100.1-23.5,137.7c-14.9,37.7-37.3,67.9-67.1,90.7c-29,22.8-64,39.2-104.8,49.4
		C3057.3,1342.4,3012.2,1347.5,2961.9,1347.5 M2974.9,949.6c25.9,0,47.5-5.5,64.8-16.5c17.3-11.8,30.2-26.3,38.9-43.6
		c9.4-18.1,14.5-36.9,15.3-56.5v-75.3c-1.6-20.4-7.1-39.2-16.5-56.5c-8.6-17.3-21.2-31.4-37.7-42.4c-16.5-11-38.1-16.5-64.8-16.5
		c-23.5,0-44.3,5.5-62.4,16.5c-18,11-32.2,27.9-42.4,50.6c-10.2,22-15.3,50.6-15.3,85.9c0,36.1,5.1,65.5,15.3,88.3
		c10.2,22.8,24.3,39.6,42.4,50.6C2930.5,944.5,2951.3,949.6,2974.9,949.6 M3639.1,1150.9c-67.5,0-125.2-13.3-173.1-40
		c-47.1-27.5-83.2-65.5-108.3-114.2c-25.1-48.7-37.7-105.6-37.7-170.7c0-68.3,12.6-127.5,37.7-177.8
		c25.9-50.2,62.4-88.7,109.5-115.4c47.1-27.5,102-41.2,164.8-41.2c74.6,0,135.8,16.5,183.7,49.4c47.9,32.2,82,76.5,102.4,133
		c21.2,56.5,28.3,120.9,21.2,193.1h-423.8c-0.8,29,3.9,53.8,14.1,74.2c11,19.6,25.5,34.9,43.6,45.9c18.8,10.2,40.8,15.3,65.9,15.3
		c28.3,0,52.2-6.3,71.8-18.8c19.6-12.6,32.2-28.6,37.7-48.3h186c-4.7,43.2-20.4,80.8-47.1,113c-25.9,32.2-60.4,57.3-103.6,75.3
		C3741.5,1141.8,3693.2,1150.9,3639.1,1150.9 M3744.1,745.9c-0.7-19.8-4.7-36.6-12-50.6c-8.6-18.1-21.6-31.8-38.8-41.2
		c-17.3-9.4-37.7-14.1-61.2-14.1c-24.3,0-45.1,5.1-62.4,15.3c-17.3,9.4-30.6,23.5-40,42.4c-7.2,14.3-11.6,30.3-13.3,48.3
		C3526.9,746,3738.8,745.9,3744.1,745.9 M4384.3,745.9c-0.7-19.8-4.7-36.6-12-50.6c-8.6-18.1-21.6-31.8-38.8-41.2
		c-17.3-9.4-37.7-14.1-61.2-14.1c-24.3,0-45.1,5.1-62.4,15.3c-17.3,9.4-30.6,23.5-40,42.4c-7.2,14.3-11.6,30.3-13.3,48.3
		C4167.1,746,4379,745.9,4384.3,745.9 M4279.2,1150.9c-67.5,0-125.2-13.3-173.1-40c-47.1-27.5-83.2-65.5-108.3-114.2
		c-25.1-48.7-37.7-105.6-37.7-170.7c0-68.3,12.6-127.5,37.7-177.8c25.9-50.2,62.4-88.7,109.5-115.4c47.1-27.5,102-41.2,164.8-41.2
		c74.6,0,135.8,16.5,183.7,49.4c47.9,32.2,82,76.5,102.4,133c21.2,56.5,28.3,120.9,21.2,193.1h-423.8c-0.8,29,3.9,53.8,14.1,74.2
		c11,19.6,25.5,34.9,43.6,45.9c18.8,10.2,40.8,15.3,65.9,15.3c28.3,0,52.2-6.3,71.8-18.8c19.6-12.6,32.2-28.6,37.7-48.3h186
		c-4.7,43.2-20.4,80.8-47.1,113c-25.9,32.2-60.4,57.3-103.6,75.3C4381.6,1141.8,4333.4,1150.9,4279.2,1150.9"/>
</g>
</svg>
